<?xml version="1.0" encoding="UTF-8"?>
<svg viewBox="0 0 407.52228 407.53354" xmlns="http://www.w3.org/2000/svg">
 <g transform="translate(-141.87 -244.15)">
  <g transform="translate(362,190)" fill-opacity=".97647">
   <path d="m0.46804 65.119c-23.184 0-44-21.336-44-4.5 0 3.0344-10.388 3.9518-9.25 6.7188-63.075 10.384-112.23 47.321-140.78 102.09-25.903 2.5123-12.969 17.782-12.969 38.688 0 14.476-23.362 29.172-8.8438 36.469-0.47812 5.6375-0.71875 11.333-0.71875 17.094 0 110.4 89.6 200 200 200 10.394 0 20.594-0.8127 30.562-2.3438-0.00263 0.0923 0 0.1884 0 0.2813 0 5.796 8.152-3.5 14.5-3.5s8.5 9.296 8.5 3.5c0-1.7485-0.45216-3.4245-1.2812-4.875 16.477-4.4565 28.623-9.9455 43.125-18.219 13.65 3.9461 15.436 4.0872 20.656 0.5938 12.485-8.356-6.2187-19.646 18.5-12.5 6.4463 1.8637-1.9357-5.6658-6.4375-9.4063 5.8425-4.882 11.407-10.086 16.656-15.594 2.5671 4.4993 2.1103-7.5 7.2812-7.5 8.004 0 5.5-3.168 5.5-12 0-6.2632 10.724-0.6858 5.9688-3.3125 19.205-27.22 31.795-59.44 35.406-94.312 6.5941-3.3161 5.625-18.122-0.375-37.375-6.7336-21.607 5.728-44-2-44-1.7895 0-3.489 0.98662-5.0625 2.7812-20.423-67.691-69.766-117.29-139.06-133.78 2.0021-3.5563-5.875-5.4225-5.875-9.5 0-16.836-6.816 4.5-30 4.5z" fill="#d7ded1"/>
   <path d="m-26.562 66.625c-4.9404 0.19218-7.5205 5.8716-11.156 9.4375-16.426 0.76368-33.059 4.9504-49.125 14.094-40.526 23.064-68.586 60.084-87.031 93.062-7.6101-0.27625-15.181-2.1987-22.688-1.9375-8.3723 2.418-5.0074 11.759-1.5938 16.938 3.7425 7.9003 1.7998 17.966-4.7188 23.844-6.8068 3.7464-4.6385 12.162 3.0312 12.312 0.83057 0.31214 1.6223 0.47851 2.375 0.53125-4.1523 11.467-6.0312 18.594-6.0312 18.594s216.37-190.21 306.88-117.38c0 0-33.434-30.92-78.281-48.438 0.58451-5.4859 3.5531-14.122-2.5625-17.219-6.0254 2.9207-12.851 2.8404-19.375 3.2188-9.6222 1.6512-17.833-4.3583-26.781-6.5625-1.0747-0.37374-2.0392-0.53494-2.9375-0.5z" fill="#eef0ec" fill-rule="evenodd"/>
   <path d="m162.06 305.12c-109.6 59.397-180.31 128.69-292.03 106.06 0 0 69.281 45.307 143.72 38 1.8334 1.7492 3.533 3.6532 5.875 4.5938 4.6359 0.68484 8.7801-2.6731 12-5.5938 0.66211-0.63602 1.0622-1.3581 1.2812-2.0938 17.636-4.01 35.269-11.372 52.031-23.438 3.292 2.9193 6.4956 6.1644 10.125 5.375 3.8166-4.9484 8.3887-9.6206 11.812-14.438-0.27755-2.0137-0.82968-5.3166-1.8438-8.1875 5.445-5.5066 10.744-11.602 15.875-18.375 4.135-2.6538 7.9081-5.9203 11.25-9.5312 2.111-2.5092 5.3357-5.6366 3.5312-9.1875-0.32218-0.44945-0.79996-0.92252-1.2812-1.4062 10.272-17.184 19.596-37.601 27.656-61.781z" fill="#c4ccbd" fill-rule="evenodd"/>
  </g>
  <path transform="matrix(.30544 0 0 .30544 194.47 315.86)" d="m551.43 460.93a200 200 0 1 1 -400 0 200 200 0 1 1 400 0z" fill="#c4ccbe"/>
  <path d="m293.95 401.68c-28.201 4.1202-48.509 28.374-48.509 56.06 6.4335-23.885 26.929-39.836 52.949-43.637 19.193-2.8042 37.207 0.19126 50.787 12.003-11.814-17.482-32.964-27.679-55.228-24.426z" fill="#a2ae98"/>
  <path d="m290.7 391.89c-28.199 4.1276-50.247 24.459-50.24 52.145 6.4272-23.887 26.481-42.897 52.501-46.705 19.192-2.8092 37.644 3.2358 51.227 15.044-11.819-17.479-31.226-23.743-53.489-20.484z" fill="#ececec"/>
  <path d="m363.16 455.25c-0.23743 6.1563-1.3722 12.208-3.3125 17.969 1.4908-0.91056 3.0963-1.6332 4.8125-2.125 0.16295-5.346-0.32113-10.683-1.5-15.844zm12.438 21.5c-0.30814 7.9893-5.262 15.429-13.188 18.5-6.054 1.9431-11.391 3.1583-12.031-4.0312-1.0079 1.3457-2.0714 2.6393-3.1875 3.9062-0.68281-0.27683-1.3813-0.58973-2.0312-0.9375 0.51732 0.48382 1.0793 0.93218 1.6562 1.375-6.5017 7.2468-14.773 13.119-24.469 16.875-18.087 7.0076-37.411 5.2414-53.281-3.25 15.41 14.413 40.051 23.566 61.031 15.438 10.818-4.1915 19.314-11.992 25.188-21.594 0.84026-3.3457 2.3782-1.777 9.625-3.8438 8.5895-3.3279 12.68-13.714 10.688-22.438z" fill="#a2ae98"/>
  <path transform="matrix(.13119 0 0 .13119 265.51 542.98)" d="m551.43 460.93a200 200 0 1 1 -400 0 200 200 0 1 1 400 0z" fill="#c4ccbe"/>
  <path d="m308.24 579.84c-12.112 1.7697-20.835 12.187-20.835 24.078 2.7632-10.259 11.566-17.11 22.742-18.743 8.2436-1.2044 15.981 0.08214 21.814 5.1555-5.0743-7.5088-14.158-11.888-23.721-10.491z" fill="#a2ae98"/>
  <path d="m306.85 575.63c-12.112 1.7729-21.582 10.506-21.578 22.397 2.7606-10.26 11.374-18.425 22.55-20.06 8.2433-1.2066 16.168 1.3898 22.003 6.4616-5.0763-7.5075-13.412-10.198-22.974-8.7981z" fill="#ececec"/>
  <path d="m323.98 632.86c11.414-4.4224 16.849-18.207 14.201-29.8-0.40946 10.617-6.9911 20.493-17.523 24.573-7.7684 3.0098-16.073 2.2412-22.889-1.406 6.6189 6.1904 17.2 10.124 26.211 6.6324z" fill="#a2ae98"/>
  <path d="m317.07 627.04c11.883-2.9368 19.554-14.151 18.4-25.987-1.7546 10.479-8.7877 18.314-19.752 21.024-8.0878 1.9988-16.977 1.3061-23.274-3.1772 5.7791 6.9809 15.245 10.458 24.627 8.1395z" fill="#ececec"/>
  <path transform="matrix(.06262 0 0 .06262 192.84 475.64)" d="m551.43 460.93a200 200 0 1 1 -400 0 200 200 0 1 1 400 0z" fill="#c4ccbe"/>
  <path d="m213.23 493.23c-5.7815 0.84469-9.945 5.817-9.9449 11.493 1.319-4.8968 5.5208-8.1668 10.855-8.9462 3.9348-0.57489 7.6278 0.03921 10.412 2.4608-2.4221-3.5841-6.758-5.6745-11.322-5.0076z" fill="#808080"/>
  <path d="m212.57 491.23c-5.7812 0.84621-10.301 5.0145-10.3 10.69 1.3177-4.8971 5.429-8.7944 10.763-9.5752 3.9346-0.57593 7.7175 0.66337 10.502 3.0842-2.423-3.5834-6.4016-4.8676-10.966-4.1995z" fill="#ececec"/>
  <path d="m220.74 518.54c5.4482-2.1109 8.0422-8.6905 6.7782-14.224-0.19544 5.0675-3.337 9.7816-8.364 11.729-3.708 1.4366-7.6717 1.0698-10.925-0.67109 3.1593 2.9548 8.2097 4.8323 12.511 3.1658z" fill="#808080"/>
  <path d="m217.45 515.77c5.6722-1.4018 9.3335-6.7547 8.7826-12.404-0.8375 5.0017-4.1945 8.7418-9.4282 10.035-3.8604 0.95404-8.1033 0.62343-11.109-1.5166 2.7585 3.3321 7.2768 4.9918 11.755 3.8851z" fill="#ececec"/>
  <path transform="matrix(.11832 0 0 .11832 215.45 297.93)" d="m551.43 460.93a200 200 0 1 1 -400 0 200 200 0 1 1 400 0z" fill="#daded5"/>
  <path d="m253.99 331.17c-10.924 1.596-18.79 10.991-18.79 21.715 2.4921-9.2522 10.431-15.431 20.51-16.903 7.4346-1.0862 14.412 0.07409 19.673 4.6496-4.5763-6.7719-12.769-10.722-21.393-9.4615z" fill="#808080"/>
  <path d="m252.73 327.38c-10.923 1.5989-19.464 9.4746-19.461 20.199 2.4896-9.2528 10.258-16.616 20.337-18.092 7.4343-1.0882 14.582 1.2534 19.843 5.8275-4.5781-6.7707-12.096-9.197-20.719-7.9347z" fill="#ececec"/>
  <path d="m268.18 378.99c10.294-3.9884 15.195-16.42 12.807-26.875-0.36927 9.5748-6.305 18.482-15.803 22.162-7.006 2.7144-14.495 2.0212-20.643-1.268 5.9694 5.5828 15.512 9.1303 23.639 5.9815z" fill="#808080"/>
  <path d="m261.95 373.74c10.717-2.6486 17.635-12.763 16.594-23.436-1.5824 9.4504-7.9253 16.517-17.814 18.961-7.2941 1.8026-15.311 1.1779-20.99-2.8654 5.2119 6.2958 13.749 9.4318 22.21 7.3407z" fill="#ececec"/>
  <path transform="matrix(.06262 0 0 .06262 375.84 287.64)" d="m551.43 460.93a200 200 0 1 1 -400 0 200 200 0 1 1 400 0z" fill="#daded5"/>
  <path d="m396.23 305.23c-5.7815 0.84469-9.945 5.817-9.9449 11.493 1.319-4.8968 5.5208-8.1668 10.855-8.9462 3.9348-0.57489 7.6278 0.03921 10.412 2.4608-2.4221-3.5841-6.758-5.6745-11.322-5.0076z" fill="#808080"/>
  <path d="m395.57 303.23c-5.7812 0.84621-10.301 5.0145-10.3 10.69 1.3177-4.8971 5.429-8.7944 10.763-9.5752 3.9346-0.57593 7.7175 0.66337 10.502 3.0842-2.423-3.5834-6.4016-4.8676-10.966-4.1995z" fill="#ececec"/>
  <path d="m403.74 330.54c5.4482-2.1109 8.0422-8.6905 6.7782-14.224-0.19544 5.0675-3.337 9.7816-8.364 11.729-3.708 1.4366-7.6717 1.0698-10.925-0.67109 3.1593 2.9548 8.2097 4.8323 12.511 3.1658z" fill="#808080"/>
  <path d="m400.45 327.77c5.6722-1.4018 9.3335-6.7547 8.7826-12.404-0.8375 5.0017-4.1945 8.7418-9.4282 10.035-3.8604 0.95404-8.1033 0.62343-11.109-1.5166 2.7585 3.3321 7.2768 4.9918 11.755 3.8851z" fill="#ececec"/>
  <g transform="matrix(.708 .14107 -.16809 .84361 236.98 12.64)">
   <path transform="matrix(.11832 0 0 .11832 443.45 470.93)" d="m551.43 460.93a200 200 0 1 1 -400 0 200 200 0 1 1 400 0z" fill="#c4ccbe"/>
   <path d="m481.99 504.17c-10.924 1.596-18.79 10.991-18.79 21.715 2.4921-9.2522 10.431-15.431 20.51-16.903 7.4346-1.0862 14.412 0.07409 19.673 4.6496-4.5763-6.7719-12.769-10.722-21.393-9.4615z" fill="#a2ae98"/>
   <path d="m480.73 500.38c-10.923 1.5989-19.464 9.4746-19.461 20.199 2.4896-9.2528 10.258-16.616 20.337-18.092 7.4343-1.0882 14.582 1.2534 19.843 5.8275-4.5781-6.7707-12.096-9.197-20.719-7.9347z" fill="#ececec"/>
   <path d="m496.18 551.99c10.294-3.9884 15.195-16.42 12.807-26.875-0.36927 9.5748-6.305 18.482-15.803 22.162-7.006 2.7144-14.495 2.0212-20.643-1.268 5.9694 5.5828 15.512 9.1303 23.639 5.9815z" fill="#a2ae98"/>
   <path d="m489.95 546.74c10.717-2.6486 17.635-12.763 16.594-23.436-1.5824 9.4504-7.9253 16.517-17.814 18.961-7.2941 1.8026-15.311 1.1779-20.99-2.8654 5.2119 6.2958 13.749 9.4318 22.21 7.3407z" fill="#ececec"/>
  </g>
  <path transform="matrix(.098724 0 0 .098724 321.4 432.05)" d="m551.43 460.93a200 200 0 1 1 -400 0 200 200 0 1 1 400 0z" fill="#c4ccbe"/>
  <path d="m369.09 480.75c-0.30814 7.9893-13.512 11.429-22.938 10-11.126 7.7433-17.651 9.767-32.812 15.938-21.587 4.2576-39.411-2.0086-55.281-10.5 15.41 14.413 40.051 23.566 61.031 15.438 10.818-4.1915 21.314-8.4925 27.188-18.094 3.0903 0.40428 5.1282 1.973 10.625 1.6562 3.5895 0.42207 12.18 1.2864 12.188-14.438z" fill="#ececec"/>
  <path transform="matrix(.12384 0 0 .12384 336.62 481.09)" d="m551.43 460.93a200 200 0 1 1 -400 0 200 200 0 1 1 400 0z" fill="#c4ccbe"/>
  <path d="m376.95 515.88c-11.434 1.6706-19.668 11.504-19.668 22.73 2.6085-9.6844 10.919-16.152 21.469-17.693 7.7819-1.137 15.086 0.07755 20.592 4.8668-4.7901-7.0883-13.365-11.222-22.392-9.9036z" fill="#a2ae98"/>
  <path d="m375.64 511.91c-11.434 1.6736-20.373 9.9172-20.37 21.143 2.606-9.6851 10.737-17.393 21.287-18.937 7.7816-1.139 15.263 1.312 20.771 6.0998-4.792-7.087-12.661-9.6267-21.687-8.3054z" fill="#ececec"/>
  <path d="m391.81 565.93c10.775-4.1747 15.905-17.187 13.405-28.131-0.38653 10.022-6.5996 19.345-16.542 23.197-7.3334 2.8413-15.172 2.1157-21.607-1.3272 6.2483 5.8437 16.236 9.5568 24.743 6.261z" fill="#a2ae98"/>
  <path d="m385.29 560.44c11.218-2.7723 18.459-13.359 17.37-24.531-1.6563 9.8919-8.2955 17.289-18.646 19.847-7.6349 1.8868-16.026 1.233-21.971-2.9993 5.4554 6.59 14.391 9.8724 23.248 7.6837z" fill="#ececec"/>
  <path transform="matrix(.097159 -.01751 .0079452 .044087 261.22 274.57)" d="m551.43 460.93a200 200 0 1 1 -400 0 200 200 0 1 1 400 0z" fill="#e2e4df" fill-opacity=".97647"/>
  <path d="m295.09 281.26c-8.8632 2.2113-14.692 6.8762-13.972 10.872 1.4252-3.8163 7.5297-7.2934 15.708-9.3338 6.0322-1.505 11.84-2.1053 16.467-1.1789-4.2128-1.8461-11.205-2.1054-18.203-0.35957z" fill="#808080"/>
  <path d="m293.81 280.03c-8.8626 2.2123-15.347 6.4108-14.624 10.406 1.4231-3.8162 7.3077-7.7096 15.485-9.7509 6.0318-1.5057 12.058-1.6909 16.686-0.76523-4.2141-1.8454-10.55-1.6369-17.547 0.10968z" fill="#ececec"/>
  <path d="m309.96 296.98c8.1855-3.0096 11.375-8.3672 8.7122-11.91 0.33973 3.6224-3.9365 7.8197-11.489 10.597-5.571 2.0483-11.767 2.8983-17.036 2.5824 5.2768 1.1968 13.351 1.1065 19.813-1.2695z" fill="#808080"/>
  <path d="m304.49 295.94c8.623-2.573 13.625-7.3654 12.053-11.189-0.66483 3.7555-5.3989 7.3274-13.355 9.7015-5.8687 1.7511-12.494 2.7048-17.429 2.0387 4.7027 1.5746 11.924 1.4797 18.732-0.55163z" fill="#ececec"/>
  <path transform="matrix(.043895 -.019239 .044616 .10179 178.48 545.14)" d="m551.43 460.93a200 200 0 1 1 -400 0 200 200 0 1 1 400 0z" fill="#c4ccbe"/>
  <path d="m205.31 567.47c-3.4508 3.1494-2.8266 12.511 1.2175 21.738-2.5644-8.3652-1.9488-14.972 1.2352-17.878 2.3486-2.1434 5.3748-2.2798 9.0518 0.80121-4.2514-5.082-8.7802-7.1478-11.505-4.6614z" fill="#a2ae98"/>
  <path d="m203.42 564.42c-3.4496 3.1518-3.6481 11.316 0.39702 20.542-2.5655-8.3654-2.4604-15.964 0.72253-18.872 2.3477-2.1451 5.8824-1.2928 9.5593 1.7869-4.2516-5.0806-7.9555-5.9457-10.679-3.4574z" fill="#ececec"/>
  <path d="m228.61 606.3c2.3151-5.1052-0.55458-16.598-5.3831-25.204 3.4736 8.2976 4.6302 16.926 2.4941 21.636-1.5756 3.4746-4.6155 4.096-8.1364 2.2658 4.3198 3.8324 9.1977 5.3328 11.025 1.3022z" fill="#a2ae98"/>
  <path d="m224.32 602.8c2.9773-4.0214 1.7299-13.848-2.6812-22.861 2.9766 8.3878 3.2882 15.499 0.54111 19.21-2.0263 2.7369-5.236 3.5031-8.8678 0.94799 4.3077 4.569 8.6574 5.8788 11.008 2.7039z" fill="#ececec"/>
  <g transform="matrix(.9134 -.24403 .21007 .78629 -32.955 180.35)">
   <path transform="matrix(.17954 0 0 .17954 370.24 308.37)" d="m551.43 460.93a200 200 0 1 1 -400 0 200 200 0 1 1 400 0z" fill="#c4ccbe"/>
   <path d="m428.71 358.82c-16.576 2.4219-28.514 16.678-28.514 32.952 3.7816-14.04 15.829-23.415 31.124-25.65 11.282-1.6483 21.87 0.11242 29.853 7.0555-6.9444-10.276-19.376-16.27-32.463-14.358z" fill="#a2ae98"/>
   <path d="m426.8 353.06c-16.576 2.4262-29.535 14.377-29.531 30.651 3.7779-14.041 15.566-25.215 30.86-27.454 11.281-1.6513 22.127 1.902 30.112 8.843-6.9471-10.274-18.355-13.956-31.441-12.041z" fill="#ececec"/>
   <path d="m450.24 431.38c15.621-6.0522 23.058-24.917 19.434-40.782-0.56036 14.529-9.5676 28.045-23.981 33.63-10.631 4.1191-21.996 3.0671-31.324-1.9241 9.0583 8.4718 23.538 13.855 35.871 9.0767z" fill="#a2ae98"/>
   <path d="m440.8 423.42c16.263-4.0191 26.761-19.367 25.181-35.564-2.4012 14.341-12.026 25.064-27.032 28.773-11.068 2.7354-23.233 1.7874-31.852-4.3482 7.9089 9.5537 20.864 14.312 33.703 11.139z" fill="#ececec"/>
   <g transform="matrix(.10015 0 0 .10015 386.4 347.37)">
    <path d="m329.56 392.23c-32.314 4.7212-55.586 32.513-55.585 64.238 7.372-27.37 30.857-45.647 60.673-50.003 21.993-3.2132 42.634 0.21916 58.196 13.754-13.538-20.033-37.772-31.716-63.284-27.989z" fill="#a2ae98"/>
    <path d="m325.84 381.01c-32.313 4.7298-57.577 28.027-57.568 59.752 7.3648-27.372 30.344-49.155 60.159-53.519 21.992-3.219 43.135 3.7078 58.7 17.239-13.543-20.029-35.781-27.206-61.291-23.472z" fill="#ececec"/>
    <path d="m371.54 533.68c30.452-11.798 44.95-48.574 37.886-79.502-1.0924 28.324-18.651 54.672-46.749 65.559-20.725 8.0298-42.879 5.9792-61.064-3.7509 17.658 16.515 45.886 27.009 69.928 17.694z" fill="#a2ae98"/>
    <path d="m353.12 518.16c31.704-7.835 52.168-37.754 49.089-69.329-4.681 27.956-23.444 48.861-52.697 56.09-21.577 5.3324-45.292 3.4845-62.093-8.4765 15.418 18.624 40.672 27.901 65.702 21.715z" fill="#ececec"/>
   </g>
   <g transform="matrix(.072158 0 0 .072158 413.73 346.21)">
    <path d="m329.56 392.23c-32.314 4.7212-55.586 32.513-55.585 64.238 7.372-27.37 30.857-45.647 60.673-50.003 21.993-3.2132 42.634 0.21916 58.196 13.754-13.538-20.033-37.772-31.716-63.284-27.989z" fill="#a2ae98"/>
    <path d="m325.84 381.01c-32.313 4.7298-57.577 28.027-57.568 59.752 7.3648-27.372 30.344-49.155 60.159-53.519 21.992-3.219 43.135 3.7078 58.7 17.239-13.543-20.029-35.781-27.206-61.291-23.472z" fill="#ececec"/>
    <path d="m371.54 533.68c30.452-11.798 44.95-48.574 37.886-79.502-1.0924 28.324-18.651 54.672-46.749 65.559-20.725 8.0298-42.879 5.9792-61.064-3.7509 17.658 16.515 45.886 27.009 69.928 17.694z" fill="#a2ae98"/>
    <path d="m353.12 518.16c31.704-7.835 52.168-37.754 49.089-69.329-4.681 27.956-23.444 48.861-52.697 56.09-21.577 5.3324-45.292 3.4845-62.093-8.4765 15.418 18.624 40.672 27.901 65.702 21.715z" fill="#ececec"/>
   </g>
  </g>
  <path transform="matrix(.079762 0 0 .073759 275.26 400.9)" d="m551.43 460.93a200 200 0 1 1 -400 0 200 200 0 1 1 400 0z" fill="#c4ccbe"/>
  <path d="m301.23 421.62c-7.3642 0.99495-12.668 6.8517-12.667 13.537 1.68-5.7679 7.0321-9.6196 13.827-10.538 5.012-0.67715 9.716 0.04619 13.262 2.8986-3.0851-4.2216-8.608-6.6839-14.422-5.8984z" fill="#a2ae98"/>
  <path d="m300.39 419.26c-7.3639 0.99674-13.121 5.9065-13.119 12.592 1.6784-5.7683 6.9152-10.359 13.71-11.279 5.0118-0.67838 9.8302 0.78138 13.377 3.6329-3.0863-4.2209-8.1542-5.7334-13.968-4.9465z" fill="#ececec"/>
  <path d="m310.8 451.43c6.9397-2.4864 10.244-10.236 8.6338-16.754-0.24895 5.969-4.2505 11.522-10.654 13.816-4.7231 1.6922-9.7719 1.26-13.916-0.79047 4.0242 3.4804 10.457 5.6919 15.936 3.7289z" fill="#a2ae98"/>
  <path d="m306.61 448.16c7.225-1.6511 11.889-7.9562 11.187-14.61-1.0668 5.8914-5.3428 10.297-12.009 11.82-4.9173 1.1238-10.322 0.73433-14.151-1.7863 3.5136 3.9248 9.2689 5.8798 14.973 4.5762z" fill="#ececec"/>
  <g transform="matrix(.3876 0 0 .3876 251.07 351.95)">
   <path transform="matrix(.13119 0 0 .13119 265.51 542.98)" d="m551.43 460.93a200 200 0 1 1 -400 0 200 200 0 1 1 400 0z" fill="#c4ccbe"/>
   <path d="m308.24 579.84c-12.112 1.7697-20.835 12.187-20.835 24.078 2.7632-10.259 11.566-17.11 22.742-18.743 8.2436-1.2044 15.981 0.08214 21.814 5.1555-5.0743-7.5088-14.158-11.888-23.721-10.491z" fill="#a2ae98"/>
   <path d="m306.85 575.63c-12.112 1.7729-21.582 10.506-21.578 22.397 2.7606-10.26 11.374-18.425 22.55-20.06 8.2433-1.2066 16.168 1.3898 22.003 6.4616-5.0763-7.5075-13.412-10.198-22.974-8.7981z" fill="#ececec"/>
   <path d="m323.98 632.86c11.414-4.4224 16.849-18.207 14.201-29.8-0.40946 10.617-6.9911 20.493-17.523 24.573-7.7684 3.0098-16.073 2.2412-22.889-1.406 6.6189 6.1904 17.2 10.124 26.211 6.6324z" fill="#a2ae98"/>
   <path d="m317.07 627.04c11.883-2.9368 19.554-14.151 18.4-25.987-1.7546 10.479-8.7877 18.314-19.752 21.024-8.0878 1.9988-16.977 1.3061-23.274-3.1772 5.7791 6.9809 15.245 10.458 24.627 8.1395z" fill="#ececec"/>
  </g>
  <g transform="matrix(.2952 0 0 .2952 212.02 418.68)">
   <path transform="matrix(.13119 0 0 .13119 265.51 542.98)" d="m551.43 460.93a200 200 0 1 1 -400 0 200 200 0 1 1 400 0z" fill="#c4ccbe"/>
   <path d="m308.24 579.84c-12.112 1.7697-20.835 12.187-20.835 24.078 2.7632-10.259 11.566-17.11 22.742-18.743 8.2436-1.2044 15.981 0.08214 21.814 5.1555-5.0743-7.5088-14.158-11.888-23.721-10.491z" fill="#a2ae98"/>
   <path d="m306.85 575.63c-12.112 1.7729-21.582 10.506-21.578 22.397 2.7606-10.26 11.374-18.425 22.55-20.06 8.2433-1.2066 16.168 1.3898 22.003 6.4616-5.0763-7.5075-13.412-10.198-22.974-8.7981z" fill="#ececec"/>
   <path d="m323.98 632.86c11.414-4.4224 16.849-18.207 14.201-29.8-0.40946 10.617-6.9911 20.493-17.523 24.573-7.7684 3.0098-16.073 2.2412-22.889-1.406 6.6189 6.1904 17.2 10.124 26.211 6.6324z" fill="#a2ae98"/>
   <path d="m317.07 627.04c11.883-2.9368 19.554-14.151 18.4-25.987-1.7546 10.479-8.7877 18.314-19.752 21.024-8.0878 1.9988-16.977 1.3061-23.274-3.1772 5.7791 6.9809 15.245 10.458 24.627 8.1395z" fill="#ececec"/>
  </g>
  <g transform="matrix(.2292 0 0 .2292 275.39 444.62)">
   <path transform="matrix(.13119 0 0 .13119 265.51 542.98)" d="m551.43 460.93a200 200 0 1 1 -400 0 200 200 0 1 1 400 0z" fill="#c4ccbe"/>
   <path d="m308.24 579.84c-12.112 1.7697-20.835 12.187-20.835 24.078 2.7632-10.259 11.566-17.11 22.742-18.743 8.2436-1.2044 15.981 0.08214 21.814 5.1555-5.0743-7.5088-14.158-11.888-23.721-10.491z" fill="#a2ae98"/>
   <path d="m306.85 575.63c-12.112 1.7729-21.582 10.506-21.578 22.397 2.7606-10.26 11.374-18.425 22.55-20.06 8.2433-1.2066 16.168 1.3898 22.003 6.4616-5.0763-7.5075-13.412-10.198-22.974-8.7981z" fill="#ececec"/>
   <path d="m323.98 632.86c11.414-4.4224 16.849-18.207 14.201-29.8-0.40946 10.617-6.9911 20.493-17.523 24.573-7.7684 3.0098-16.073 2.2412-22.889-1.406 6.6189 6.1904 17.2 10.124 26.211 6.6324z" fill="#a2ae98"/>
   <path d="m317.07 627.04c11.883-2.9368 19.554-14.151 18.4-25.987-1.7546 10.479-8.7877 18.314-19.752 21.024-8.0878 1.9988-16.977 1.3061-23.274-3.1772 5.7791 6.9809 15.245 10.458 24.627 8.1395z" fill="#ececec"/>
  </g>
  <g transform="matrix(.47889 -.14303 .11382 .38109 228.17 414.01)">
   <path transform="matrix(.13119 0 0 .13119 265.51 542.98)" d="m551.43 460.93a200 200 0 1 1 -400 0 200 200 0 1 1 400 0z" fill="#c4ccbe"/>
   <path d="m308.24 579.84c-12.112 1.7697-20.835 12.187-20.835 24.078 2.7632-10.259 11.566-17.11 22.742-18.743 8.2436-1.2044 15.981 0.08214 21.814 5.1555-5.0743-7.5088-14.158-11.888-23.721-10.491z" fill="#a2ae98"/>
   <path d="m306.85 575.63c-12.112 1.7729-21.582 10.506-21.578 22.397 2.7606-10.26 11.374-18.425 22.55-20.06 8.2433-1.2066 16.168 1.3898 22.003 6.4616-5.0763-7.5075-13.412-10.198-22.974-8.7981z" fill="#ececec"/>
   <path d="m323.98 632.86c11.414-4.4224 16.849-18.207 14.201-29.8-0.40946 10.617-6.9911 20.493-17.523 24.573-7.7684 3.0098-16.073 2.2412-22.889-1.406 6.6189 6.1904 17.2 10.124 26.211 6.6324z" fill="#a2ae98"/>
   <path d="m317.07 627.04c11.883-2.9368 19.554-14.151 18.4-25.987-1.7546 10.479-8.7877 18.314-19.752 21.024-8.0878 1.9988-16.977 1.3061-23.274-3.1772 5.7791 6.9809 15.245 10.458 24.627 8.1395z" fill="#ececec"/>
  </g>
  <g transform="matrix(.48375 0 0 .61575 358.14 66.551)">
   <path transform="matrix(.13119 0 0 .13119 265.51 542.98)" d="m551.43 460.93a200 200 0 1 1 -400 0 200 200 0 1 1 400 0z" fill="#c4ccbe"/>
   <path d="m308.24 579.84c-12.112 1.7697-20.835 12.187-20.835 24.078 2.7632-10.259 11.566-17.11 22.742-18.743 8.2436-1.2044 15.981 0.08214 21.814 5.1555-5.0743-7.5088-14.158-11.888-23.721-10.491z" fill="#a2ae98"/>
   <path d="m306.85 575.63c-12.112 1.7729-21.582 10.506-21.578 22.397 2.7606-10.26 11.374-18.425 22.55-20.06 8.2433-1.2066 16.168 1.3898 22.003 6.4616-5.0763-7.5075-13.412-10.198-22.974-8.7981z" fill="#ececec"/>
   <path d="m323.98 632.86c11.414-4.4224 16.849-18.207 14.201-29.8-0.40946 10.617-6.9911 20.493-17.523 24.573-7.7684 3.0098-16.073 2.2412-22.889-1.406 6.6189 6.1904 17.2 10.124 26.211 6.6324z" fill="#a2ae98"/>
   <path d="m317.07 627.04c11.883-2.9368 19.554-14.151 18.4-25.987-1.7546 10.479-8.7877 18.314-19.752 21.024-8.0878 1.9988-16.977 1.3061-23.274-3.1772 5.7791 6.9809 15.245 10.458 24.627 8.1395z" fill="#ececec"/>
  </g>
  <path d="m346.04 466.25c-6.1124 4.2261-8.1835 11.851-5.1518 17.81-1.118-5.9026 1.9057-11.762 7.5456-15.662 4.1601-2.8762 8.6807-4.3645 13.135-3.4304-4.664-2.3637-10.703-2.0539-15.529 1.2825z" fill="#a2ae98"/>
  <path d="m346.79 462.58c-6.8529 2.8738-11.139 9.1096-9.4017 15.566 0.12378-6.0062 3.9898-11.799 10.313-14.45 4.664-1.9559 9.6962-1.7967 13.862 0.03645-4.0761-3.2752-9.3628-3.4207-14.773-1.1518z" fill="#ececec"/>
 </g>
</svg>
